<svg xmlns="http://www.w3.org/2000/svg" xmlns:xlink="http://www.w3.org/1999/xlink" viewBox="0 0 200 200"><defs><style>.cls-1{fill:url(#linear-gradient);}.cls-2{fill:#fff;}</style><linearGradient id="linear-gradient" x1="-242.06" y1="-137.94" x2="-42.06" y2="-137.94" gradientTransform="translate(242.06 237.94)" gradientUnits="userSpaceOnUse"><stop offset="0" stop-color="#1c85e8"/><stop offset="1" stop-color="#002245"/></linearGradient></defs><g id="Layer_2" data-name="Layer 2"><g id="Layer_1-2" data-name="Layer 1"><rect class="cls-1" width="200" height="200" transform="translate(200 0) rotate(90)"/><path class="cls-2" d="M44.3,119.69c0-9.13,5.69-16.1,14.77-16.1,7.57,0,12.05,4.52,12.69,10.37H65.57c-.56-3.09-2.89-5.12-6.5-5.12-5.68,0-8.4,4.74-8.4,10.85,0,6.28,3.28,10.8,8.44,10.8,3.66,0,6.24-2.19,6.63-5.42h6.11a10.89,10.89,0,0,1-3.4,7.27c-2.11,2-5.08,3.27-9.34,3.27C50.46,135.61,44.3,128.94,44.3,119.69Z"/><path class="cls-2" d="M74.15,104.19H80V135H74.15Z"/><path class="cls-2" d="M82.16,124c0-6.59,4.69-11.66,11.53-11.66s11.54,5.07,11.54,11.66-4.69,11.66-11.54,11.66S82.16,130.53,82.16,124Zm17.13,0c0-4.3-2-7.23-5.6-7.23S88.1,119.65,88.1,124s2,7.19,5.59,7.19S99.29,128.25,99.29,124Z"/><path class="cls-2" d="M121.29,135v-2.59h-.13a7.05,7.05,0,0,1-6.32,3.19c-4.91,0-7.66-3.14-7.66-8V112.89H113v13.73c0,2.58,1.16,4,3.65,4,2.76,0,4.44-2.07,4.44-5V112.89h5.85V135Z"/><path class="cls-2" d="M129.26,124c0-6.89,3.91-11.66,9.42-11.66a7,7,0,0,1,6.24,3.27h.13V104.19h5.86V135h-5.64v-2.89h-.09a7.33,7.33,0,0,1-6.58,3.53C133.05,135.61,129.26,131.09,129.26,124Zm15.92.13c0-4.22-1.38-7.06-5.12-7.06-3.23,0-4.86,2.84-4.86,6.93,0,4.26,1.68,6.76,4.69,6.76C143.37,130.71,145.18,128.12,145.18,124.08Z"/><path class="cls-2" d="M67.85,168.81h-.09a9.19,9.19,0,0,1-8.65,4.78,14,14,0,0,1-10.8-4.48,18.25,18.25,0,0,1,1-24,14.13,14.13,0,0,1,9.9-3.53c7.75,0,12.18,4.26,13.17,10.28H66.3c-.69-3-3-5.12-6.93-5.12-5.81,0-8.7,4.82-8.7,10.93,0,6.29,3.32,10.89,8.61,10.89,4.78,0,7.92-3.57,7.92-7v-.17H59.8v-4.82h13v16.35H68.06Z"/><path class="cls-2" d="M90.29,172.94v-2.58h-.13a7.07,7.07,0,0,1-6.32,3.19c-4.91,0-7.66-3.15-7.66-8V150.86H82v13.73c0,2.59,1.16,4,3.66,4,2.75,0,4.43-2.07,4.43-5V150.86h5.85v22.08Z"/><path class="cls-2" d="M112.41,170.49h-.09c-1.12,1.68-2.71,3-6.5,3-4.52,0-7.7-2.37-7.7-6.76,0-4.86,4-6.41,8.86-7.1,3.66-.52,5.34-.82,5.34-2.5s-1.25-2.62-3.7-2.62c-2.76,0-4.09,1-4.26,3.1H99.15c.17-3.88,3.06-7.28,9.51-7.28,6.63,0,9.3,3,9.3,8.14v11.23c0,1.68.26,2.67.77,3.06v.21h-5.64A5.91,5.91,0,0,1,112.41,170.49Zm0-5.34v-3.31a16.27,16.27,0,0,1-4.09,1.29c-3.06.69-4.56,1.38-4.56,3.44s1.38,2.8,3.44,2.8C110.6,169.37,112.45,167.3,112.45,165.15Z"/><path class="cls-2" d="M126.79,154.39h.13c1.34-2.49,2.84-3.78,5.42-3.78a3.8,3.8,0,0,1,1.38.17v5.12h-.13c-3.83-.39-6.58,1.64-6.58,6.28v10.76h-5.86V150.86h5.64Z"/><path class="cls-2" d="M134.2,161.93c0-6.89,3.92-11.67,9.43-11.67a7,7,0,0,1,6.24,3.27H150V142.17h5.85v30.77h-5.64v-2.88h-.08a7.35,7.35,0,0,1-6.59,3.53C138,173.59,134.2,169.07,134.2,161.93Zm15.93.12c0-4.21-1.38-7.05-5.12-7.05-3.23,0-4.87,2.84-4.87,6.93,0,4.26,1.68,6.75,4.69,6.75C148.32,168.68,150.13,166.1,150.13,162.05Z"/><path class="cls-2" d="M96.63,66.14H89.15V55.94h7.48Z"/><path class="cls-2" d="M96.63,34.52H89.15V27.19h7.48Z"/><path class="cls-2" d="M89.15,19.56H44.3V52.28A36.54,36.54,0,0,0,80.85,88.82h8.3V81.21h-8.3A29,29,0,0,1,51.92,52.28V27.17H89.15V27h0Z"/><rect class="cls-2" x="74.32" y="48.45" width="14.83" height="7.48"/><path class="cls-2" d="M89.15,34.52H59V50.9A22.91,22.91,0,0,0,81.92,73.81h7.23V66.19H81.92A15.31,15.31,0,0,1,66.63,50.9V42.13H89.15V42h0V34.52Z"/></g></g></svg>